<?xml version="1.0" standalone="no"?>
<!DOCTYPE svg PUBLIC "-//W3C//DTD SVG 20010904//EN"
 "http://www.w3.org/TR/2001/REC-SVG-20010904/DTD/svg10.dtd">
<svg version="1.0" xmlns="http://www.w3.org/2000/svg"
 width="600.000000pt" height="450.000000pt" viewBox="0 0 600.000000 450.000000"
 preserveAspectRatio="xMidYMid meet">

<g transform="translate(0.000000,450.000000) scale(0.100000,-0.100000)"
fill="#000000" stroke="none">
<path d="M2053 4223 c-78 -18 -85 -38 -10 -29 76 10 128 26 122 36 -8 13 -37
11 -112 -7z"/>
<path d="M1758 4082 c-91 -70 -177 -196 -193 -285 -7 -35 -5 -39 60 -99 38
-36 77 -63 90 -64 31 -1 45 -12 56 -42 8 -20 12 -23 19 -13 6 10 16 0 37 -38
16 -28 33 -48 36 -44 4 3 7 -4 7 -17 0 -13 3 -20 7 -17 3 4 12 -2 20 -13 11
-15 26 -20 58 -20 34 0 47 -5 59 -22 26 -36 21 -51 -14 -43 -16 4 -30 4 -30 1
0 -3 21 -20 48 -37 26 -18 67 -50 91 -71 24 -21 48 -38 53 -38 5 0 40 -15 76
-33 37 -19 84 -39 105 -46 20 -7 37 -18 37 -26 0 -14 28 -24 75 -26 69 -4
-153 -17 -310 -18 -93 -1 -215 -6 -270 -11 -165 -16 -285 -32 -285 -39 1 -10
99 -82 153 -112 97 -53 171 -126 224 -223 26 -48 62 -104 79 -124 30 -35 33
-36 60 -24 15 8 46 17 68 22 23 5 68 16 101 25 85 22 180 34 207 27 l23 -6
-25 -6 c-23 -5 -25 -10 -23 -59 2 -69 18 -87 64 -73 73 22 128 33 212 44 49 6
85 14 80 18 -4 5 -42 15 -83 24 -132 28 -214 53 -201 61 20 12 316 9 421 -4
86 -11 140 -19 254 -37 21 -3 64 -13 95 -23 63 -19 59 -10 46 -132 -6 -51 -4
-72 9 -96 25 -50 74 -40 101 21 19 41 50 76 68 76 10 0 18 -14 22 -42 16 -99
46 -137 185 -231 29 -19 40 -33 36 -44 -11 -27 34 -142 63 -162 65 -44 131
-66 336 -110 77 -17 280 -60 450 -97 171 -37 319 -69 330 -71 13 -3 54 17 110
54 98 64 178 102 279 134 81 26 99 44 68 69 -19 16 -35 18 -112 13 -78 -5 -93
-3 -124 15 -31 18 -46 20 -123 15 -77 -5 -93 -3 -125 15 -32 18 -48 20 -122
15 -74 -5 -88 -3 -118 15 -30 19 -44 21 -121 15 -52 -3 -92 -2 -99 4 -36 27
-50 24 -99 -27 -27 -27 -52 -50 -58 -50 -5 0 -2 18 5 40 8 22 17 66 20 97 4
32 10 63 14 68 4 6 13 46 18 90 6 45 14 88 18 98 3 10 1 17 -5 17 -14 0 -14
27 0 32 7 2 11 25 11 53 -2 69 4 84 31 78 l22 -6 -22 22 c-12 11 -20 27 -17
34 7 19 -22 41 -96 72 -122 51 -196 93 -245 140 -27 25 -65 53 -83 62 -19 9
-39 27 -44 39 -6 13 -26 28 -44 34 -19 7 -34 16 -34 21 0 5 -10 13 -22 18 -13
5 -50 26 -83 47 -33 22 -69 44 -80 50 -11 6 -24 20 -30 32 -6 14 -19 22 -34
22 -24 0 -120 54 -157 89 -12 11 -24 17 -27 15 -3 -3 -29 19 -59 49 -29 30
-64 58 -78 62 -14 4 -36 16 -49 26 -13 11 -36 19 -51 19 -19 0 -36 12 -60 40
-18 22 -36 38 -38 35 -8 -8 -42 15 -42 30 0 20 -16 22 -79 9 -63 -12 -85 -9
-76 13 7 20 -31 53 -62 53 -20 0 -22 -3 -14 -19 7 -11 7 -30 1 -50 -9 -34 -2
-45 20 -30 8 5 23 9 32 9 13 0 8 -9 -18 -37 -31 -34 -36 -36 -47 -21 -12 15
-14 15 -24 0 -12 -20 -10 -23 76 -110 183 -184 277 -355 242 -440 -10 -24 -17
-28 -41 -24 -16 2 -43 -1 -60 -6 -20 -7 -30 -8 -30 -1 0 6 -4 7 -10 4 -5 -3
-20 1 -32 9 -12 9 -18 16 -13 16 5 0 4 5 -3 12 -18 18 -15 49 3 42 10 -4 13
-2 10 8 -4 9 -15 13 -29 11 -33 -7 -39 10 -16 40 l20 25 -24 6 c-14 3 -37 1
-52 -4 -32 -13 -44 -1 -44 43 0 15 -5 27 -10 27 -6 0 -8 11 -4 25 5 22 3 25
-21 25 -26 0 -27 1 -12 23 14 22 14 24 -1 24 -10 0 -22 -4 -28 -9 -8 -5 -14
-3 -18 7 -4 12 -10 13 -24 6 -15 -8 -32 0 -88 45 -38 30 -88 73 -110 94 -23
22 -46 40 -53 40 -6 0 -11 6 -11 14 0 8 -13 24 -29 35 -23 17 -38 19 -79 14
-51 -6 -55 -4 -103 40 -10 9 -22 17 -25 17 -4 0 -25 17 -48 37 -44 40 -90 101
-130 173 -13 25 -34 55 -45 67 -12 13 -26 47 -32 78 -5 30 -25 96 -44 146 -18
50 -32 96 -30 102 12 40 14 67 6 67 -6 0 -38 -22 -73 -48z m325 -744 c38 -28
90 -68 85 -68 -9 1 -75 27 -88 35 -16 11 -44 55 -35 55 3 0 20 -10 38 -22z
m1322 -364 c21 -32 5 -39 -60 -24 -89 20 -105 41 -42 58 41 11 81 -2 102 -34z
m-388 -219 c-28 -24 -99 -36 -110 -17 -3 4 14 6 36 4 32 -3 48 2 66 17 13 12
27 21 30 21 3 0 -7 -12 -22 -25z m497 -221 c4 -9 5 -19 2 -21 -7 -7 -46 17
-46 27 0 17 37 11 44 -6z m331 -200 c17 -8 22 -12 12 -9 -9 2 -39 7 -65 11
-59 8 -67 14 -16 14 21 -1 53 -8 69 -16z"/>
<path d="M2724 3565 c-3 -14 -10 -23 -14 -20 -5 3 -12 0 -16 -6 -5 -8 -3 -9 6
-4 9 5 11 1 6 -16 -3 -13 -3 -18 0 -11 12 27 24 9 24 -37 0 -30 5 -53 15 -61
12 -10 14 -7 13 17 0 15 2 53 5 82 6 52 -3 81 -24 81 -5 0 -11 -11 -15 -25z"/>
<path d="M400 3232 c-58 -27 -186 -61 -233 -62 -27 0 -28 -2 -22 -37 17 -103
159 -319 293 -444 63 -60 107 -91 227 -158 l42 -24 -23 -34 c-17 -25 -21 -42
-17 -68 4 -27 2 -35 -9 -35 -8 0 -27 -11 -42 -25 -21 -20 -26 -32 -25 -68 2
-39 -2 -49 -34 -81 -20 -20 -39 -36 -43 -36 -3 0 -29 -22 -57 -50 -28 -27 -56
-50 -63 -50 -6 0 -19 -11 -28 -25 -9 -14 -22 -25 -28 -25 -11 0 -28 -14 -95
-82 -15 -16 -33 -28 -40 -28 -7 0 -23 -11 -35 -25 -12 -14 -27 -25 -33 -25 -7
0 -24 -9 -39 -21 -14 -11 -42 -25 -61 -30 l-35 -10 0 -116 c0 -96 2 -114 14
-110 8 3 33 11 55 17 22 6 45 19 50 29 9 16 29 23 146 46 45 10 65 10 122 2
49 -7 52 -6 55 15 3 21 7 23 63 21 82 -4 116 -8 145 -21 25 -11 82 -23 130
-28 48 -5 90 -16 96 -25 3 -5 15 -9 27 -9 12 0 31 -7 41 -15 11 -8 30 -15 42
-15 13 0 26 -5 29 -10 3 -6 19 -10 35 -10 19 0 33 -7 40 -21 8 -15 18 -19 34
-15 15 4 26 -1 34 -15 10 -15 20 -19 37 -15 30 8 43 -9 55 -75 8 -39 18 -60
38 -76 15 -12 30 -22 33 -23 4 0 9 -7 13 -15 4 -10 -5 -20 -29 -30 -62 -25
-75 -97 -26 -147 17 -17 31 -41 31 -52 0 -12 8 -26 19 -33 10 -6 21 -21 24
-33 5 -21 3 -22 -31 -17 -20 3 -62 8 -92 11 -55 6 -42 -1 34 -19 29 -6 29 -6
7 -21 -24 -17 -27 -46 -7 -63 11 -9 23 -8 52 4 44 18 64 14 64 -14 0 -11 6
-24 14 -28 18 -10 68 -133 61 -151 -8 -22 33 -30 322 -61 153 -17 307 -35 343
-41 36 -5 115 -14 175 -20 242 -25 696 -88 711 -100 10 -9 113 -27 209 -36 28
-3 57 -8 65 -11 8 -3 39 -8 68 -9 30 -2 60 -8 67 -14 7 -6 17 -10 21 -9 5 1
14 0 19 -1 20 -4 41 -7 78 -8 25 -1 37 -7 37 -17 0 -11 6 -12 23 -6 28 10 47
4 47 -17 0 -12 3 -13 12 -4 7 7 22 12 35 12 30 0 177 51 228 80 134 75 382
256 483 354 83 80 101 108 101 157 -1 36 -17 100 -28 109 -4 3 -17 20 -30 38
-12 17 -29 32 -38 32 -8 0 -33 17 -54 39 -38 38 -42 55 -11 44 15 -6 15 -4 0
14 -10 11 -18 23 -18 26 0 4 -8 16 -17 28 -34 42 -136 164 -146 174 -9 10 19
-52 54 -116 20 -39 25 -69 10 -69 -9 0 -131 262 -131 283 0 7 -6 19 -12 26
-11 11 -10 13 0 7 30 -18 79 25 66 58 -7 19 -82 54 -134 62 -31 5 -47 16 -71
45 -39 50 -57 50 -61 2 -2 -24 -8 -37 -15 -36 -9 2 -12 -10 -11 -37 1 -22 -1
-42 -4 -45 -2 -3 -27 -8 -54 -11 -41 -5 -83 -18 -103 -31 -8 -6 43 -53 56 -53
8 0 11 -4 8 -10 -3 -5 -15 -10 -26 -10 -10 0 -19 -4 -19 -9 0 -16 -34 -18 -52
-3 -10 9 -18 10 -18 4 0 -10 -144 -102 -161 -102 -13 0 -81 122 -82 149 -2 22
7 29 73 56 41 18 116 52 165 76 l90 43 -85 7 c-47 4 -154 7 -238 8 -167 1
-182 -3 -182 -55 0 -25 -2 -26 -39 -21 -22 3 -66 17 -97 31 -54 25 -66 27
-186 24 -92 -2 -128 -6 -128 -15 0 -18 -20 -27 -33 -14 -6 6 -19 11 -28 11
-12 0 -16 6 -12 20 5 18 0 20 -41 20 -25 0 -46 -2 -46 -4 0 -1 23 -61 51 -132
50 -125 51 -130 35 -157 -9 -16 -14 -33 -10 -38 3 -5 1 -9 -5 -9 -5 0 -11 5
-13 11 -2 6 -19 14 -37 18 -19 3 -37 13 -41 21 -21 43 -34 89 -34 123 -1 20
-4 37 -9 37 -4 0 -12 11 -17 25 -5 14 -15 25 -21 25 -7 0 -9 9 -5 25 4 15 2
25 -4 25 -6 0 -20 9 -32 20 -19 17 -19 20 -5 20 9 0 17 4 17 10 0 5 -6 7 -14
4 -8 -3 -32 -1 -54 5 -29 8 -47 22 -68 54 -16 23 -34 47 -40 52 -25 23 -55 76
-49 86 9 13 -33 59 -53 59 -11 0 -12 3 -2 14 6 8 18 12 26 9 8 -3 26 -2 40 1
26 7 26 7 -21 37 -30 19 -45 35 -41 44 6 17 -10 30 -19 15 -10 -16 -25 -12
-25 6 0 11 -5 14 -16 10 -8 -3 -24 -1 -34 4 -25 13 -50 2 -50 -21 0 -10 -6
-19 -14 -19 -18 0 -61 22 -66 35 -2 6 -10 9 -17 7 -8 -2 -13 7 -13 23 0 28 27
35 37 9 3 -8 12 -13 19 -10 7 3 16 1 19 -5 8 -12 25 -2 25 15 0 7 -29 43 -65
81 -36 37 -65 71 -65 76 0 5 -6 9 -14 9 -16 0 -46 42 -46 64 0 9 -11 14 -34
14 -38 0 -38 1 -52 -155 -4 -40 -11 -73 -15 -73 -5 0 -9 -7 -9 -15 0 -8 -7
-15 -15 -15 -8 0 -15 -7 -15 -15 0 -8 -9 -19 -21 -25 -16 -9 -18 -14 -9 -25 9
-11 7 -17 -9 -27 -13 -8 -21 -23 -21 -41 0 -15 -9 -46 -19 -70 -11 -23 -23
-53 -26 -66 -7 -23 -8 -24 -21 -6 -12 16 -13 15 -12 -18 1 -42 -9 -58 -22 -37
-7 10 -10 11 -10 3 0 -7 -9 -13 -21 -13 -15 0 -19 5 -15 16 3 8 2 12 -4 9 -6
-3 -10 2 -10 11 0 10 3 15 6 12 13 -14 39 28 36 57 -2 17 1 80 6 140 4 61 5
112 0 113 -11 5 -10 70 2 77 11 7 10 75 -2 75 -4 0 -8 7 -8 15 0 8 -6 15 -14
15 -19 0 -53 -84 -72 -177 -26 -127 -47 -157 -90 -130 -7 4 -18 -6 -27 -26 -9
-17 -25 -42 -36 -54 -12 -12 -21 -26 -21 -30 0 -4 -14 -24 -30 -43 -16 -19
-30 -40 -30 -47 0 -19 -52 -56 -61 -42 -4 7 -12 8 -20 4 -9 -6 -11 -3 -6 9 5
14 3 17 -8 12 -19 -7 15 64 50 106 13 15 26 47 30 70 4 24 16 60 26 80 11 21
19 44 19 53 0 8 5 15 10 15 6 0 10 6 10 13 0 7 5 18 12 25 6 6 13 17 15 24 1
7 6 29 11 48 4 19 5 54 2 77 -4 23 -4 40 0 38 4 -2 7 10 7 27 l0 31 -23 -29
c-46 -57 -73 -121 -93 -220 -43 -216 -64 -285 -91 -301 -15 -10 -22 -10 -34 3
-10 9 -24 13 -36 9 -14 -4 -20 -2 -20 9 0 9 6 13 13 10 7 -2 24 -1 38 5 l24 9
-28 11 c-39 15 -40 15 -60 -18 -13 -23 -24 -29 -47 -29 -36 1 -80 39 -80 68 0
27 27 117 45 151 8 14 16 48 18 74 3 27 10 51 16 53 19 6 12 20 -11 24 -13 2
-22 9 -21 16 2 6 -2 12 -8 12 -8 0 -8 5 1 15 14 17 6 47 -11 43 -6 -2 -13 6
-15 16 -1 10 -9 23 -16 27 -13 8 -14 12 -17 44 0 9 -13 21 -27 27 -21 10 -27
9 -35 -3 -7 -11 -9 -9 -9 9 0 35 -1 36 -16 53 -9 10 -24 14 -39 12 -16 -4 -27
1 -37 16 -9 15 -23 21 -46 21 -25 0 -35 5 -39 19 -2 10 -22 27 -44 37 -21 11
-39 22 -40 27 -1 4 -2 11 -3 15 0 5 -8 16 -16 25 -35 38 -40 48 -40 76 0 16
-6 31 -14 34 -7 3 -19 28 -26 55 -6 28 -20 58 -31 68 -10 9 -19 23 -19 29 0 7
-7 18 -15 25 -8 7 -15 21 -15 31 0 18 -21 44 -40 51 -8 2 -8 11 -1 29 6 17 33
39 75 63 36 20 68 41 71 46 8 12 11 13 -55 -18z m195 -582 c3 -5 1 -10 -4 -10
-6 0 -11 5 -11 10 0 6 2 10 4 10 3 0 8 -4 11 -10z m1273 -444 c61 -45 253
-241 294 -301 23 -33 56 -78 75 -101 18 -23 33 -45 33 -51 0 -5 5 -14 12 -21
6 -6 13 -19 14 -27 2 -11 -2 -12 -16 -5 -9 5 -20 7 -23 4 -10 -11 -117 -16
-117 -6 0 5 17 16 38 25 29 12 32 15 14 16 -38 2 -92 -26 -92 -47 0 -16 -7
-19 -42 -19 -68 0 -295 -34 -317 -47 -5 -4 -11 4 -13 16 -3 23 -5 23 -133 20
-103 -2 -134 0 -149 12 -18 14 -18 16 4 45 20 30 25 31 91 31 42 0 81 6 99 15
34 18 69 65 62 84 -2 7 5 31 17 52 24 43 51 183 51 272 l0 57 33 0 c19 0 47
-10 65 -24z m-1228 -167 c0 -11 -4 -17 -10 -14 -5 3 -10 15 -10 26 0 11 5 17
10 14 6 -3 10 -15 10 -26z m158 -62 c24 -18 50 -46 57 -63 11 -27 21 -33 66
-43 30 -7 89 -28 132 -48 43 -20 98 -38 122 -41 33 -3 49 -11 61 -30 9 -14 29
-37 43 -50 l26 -25 -40 7 c-41 7 -91 21 -133 37 -13 5 -34 9 -47 9 -13 0 -27
5 -30 10 -3 6 -19 10 -35 10 -16 0 -32 5 -35 10 -3 6 -16 10 -29 10 -12 0 -31
7 -42 15 -10 8 -33 15 -51 15 -17 0 -34 4 -37 9 -3 5 -23 11 -43 14 -87 11
-179 30 -200 39 -12 6 -36 8 -52 5 -41 -9 -42 17 -1 38 16 8 33 21 37 28 4 7
20 20 36 30 15 10 27 24 27 32 0 7 9 17 20 20 11 3 25 15 31 26 10 20 11 20
42 -6 18 -14 52 -40 75 -58z m-218 12 c0 -5 -4 -9 -10 -9 -5 0 -10 7 -10 16 0
8 5 12 10 9 6 -3 10 -10 10 -16z m2290 -439 c0 -5 -2 -10 -4 -10 -3 0 -8 5
-11 10 -3 6 -1 10 4 10 6 0 11 -4 11 -10z m-1268 -48 c-14 -2 -22 -9 -19 -17
3 -7 0 -18 -6 -24 -8 -8 -6 -11 7 -11 32 0 11 -23 -22 -24 -35 -1 -39 3 -20
22 9 9 8 12 -4 12 -9 0 -20 5 -23 10 -11 18 15 39 53 42 41 4 70 -5 34 -10z
m483 -2 c3 -5 -1 -10 -9 -10 -9 0 -16 5 -16 10 0 6 4 10 9 10 6 0 13 -4 16
-10z m225 -30 c0 -5 -5 -10 -11 -10 -5 0 -7 5 -4 10 3 6 8 10 11 10 2 0 4 -4
4 -10z m60 0 c0 -5 -7 -7 -15 -4 -8 4 -15 8 -15 10 0 2 7 4 15 4 8 0 15 -4 15
-10z m-743 -32 c-3 -8 -6 -5 -6 6 -1 11 2 17 5 13 3 -3 4 -12 1 -19z m443 12
c0 -5 -12 -10 -27 -9 l-28 1 25 8 c14 4 26 8 28 9 1 1 2 -3 2 -9z m40 0 c0 -5
-4 -10 -10 -10 -5 0 -10 5 -10 10 0 6 5 10 10 10 6 0 10 -4 10 -10z m27 -12
c-3 -8 -6 -5 -6 6 -1 11 2 17 5 13 3 -3 4 -12 1 -19z m811 5 c-10 -2 -28 -2
-40 0 -13 2 -5 4 17 4 22 1 32 -1 23 -4z m-1519 -36 c14 3 20 -3 25 -22 5 -21
10 -24 20 -16 7 6 16 8 19 4 4 -3 7 1 7 10 0 25 55 22 81 -4 17 -17 19 -23 8
-30 -8 -4 -19 -3 -26 3 -8 6 -17 8 -20 4 -4 -4 -1 -11 6 -15 10 -6 10 -10 2
-16 -7 -4 -19 -1 -27 6 -12 10 -13 9 -8 -6 5 -13 4 -16 -4 -11 -7 4 -12 17
-12 29 0 13 -3 18 -10 11 -5 -5 -6 -24 -1 -47 5 -21 5 -37 0 -37 -9 0 -13 15
-9 39 1 12 -1 13 -13 3 -12 -10 -16 -9 -21 3 -3 9 0 15 9 15 24 0 17 20 -9 30
-23 8 -47 39 -45 57 0 4 3 3 5 -3 3 -7 13 -10 23 -7z m341 9 c0 -2 -7 -7 -16
-10 -8 -3 -12 -2 -9 4 6 10 25 14 25 6z m43 -3 c-7 -2 -19 -2 -25 0 -7 3 -2 5
12 5 14 0 19 -2 13 -5z m-418 -56 c8 -20 13 -37 10 -37 -7 0 -35 57 -35 71 0
18 7 8 25 -34z m732 37 c-3 -3 -12 -4 -19 -1 -8 3 -5 6 6 6 11 1 17 -2 13 -5z
m-297 -34 c0 -5 -4 -10 -10 -10 -5 0 -10 5 -10 10 0 6 5 10 10 10 6 0 10 -4
10 -10z m837 4 c-3 -3 -12 -4 -19 -1 -8 3 -5 6 6 6 11 1 17 -2 13 -5z m-870
-10 c-3 -3 -12 -4 -19 -1 -8 3 -5 6 6 6 11 1 17 -2 13 -5z m2458 -43 c3 -5 2
-12 -3 -15 -5 -3 -9 1 -9 9 0 17 3 19 12 6z m-122 -135 c-10 -13 -20 -22 -22
-20 -4 4 29 44 36 44 2 0 -4 -11 -14 -24z m-2665 -17 c-3 -8 -7 -3 -11 10 -4
17 -3 21 5 13 5 -5 8 -16 6 -23z m30 -69 c6 -16 7 -30 2 -30 -6 0 -30 52 -30
67 0 14 20 -12 28 -37z m2930 5 c-3 -3 -9 2 -12 12 -6 14 -5 15 5 6 7 -7 10
-15 7 -18z"/>
<path d="M1540 1480 c0 -5 5 -10 10 -10 6 0 10 5 10 10 0 6 -4 10 -10 10 -5 0
-10 -4 -10 -10z"/>
<path d="M2685 3180 c-3 -5 1 -10 9 -10 9 0 16 5 16 10 0 6 -4 10 -9 10 -6 0
-13 -4 -16 -10z"/>
<path d="M0 3145 c0 -25 1 -25 25 -9 32 21 32 34 0 34 -20 0 -25 -5 -25 -25z"/>
<path d="M5448 2532 c-28 -17 -36 -32 -18 -32 6 0 10 -17 10 -37 0 -31 2 -34
13 -21 6 9 30 18 52 22 22 3 45 12 51 21 6 8 18 15 25 15 8 0 19 8 26 18 10
18 8 19 -38 14 -32 -3 -49 -1 -49 7 0 16 -41 13 -72 -7z"/>
<path d="M1675 2479 c-4 -6 -5 -12 -2 -15 2 -3 7 2 10 11 7 17 1 20 -8 4z"/>
<path d="M5805 2470 c3 -5 10 -10 16 -10 5 0 9 5 9 10 0 6 -7 10 -16 10 -8 0
-12 -4 -9 -10z"/>
<path d="M1531 2444 c0 -11 3 -14 6 -6 3 7 2 16 -1 19 -3 4 -6 -2 -5 -13z"/>
<path d="M5560 2450 c0 -5 9 -10 20 -10 11 0 20 5 20 10 0 6 -9 10 -20 10 -11
0 -20 -4 -20 -10z"/>
<path d="M5828 2438 c-17 -17 -17 -18 12 -18 31 0 39 11 18 27 -9 7 -19 4 -30
-9z"/>
<path d="M1683 2436 c3 -8 2 -16 -2 -18 -5 -2 -4 -14 1 -28 8 -18 12 -21 16
-10 3 8 10 19 16 23 8 6 7 10 -1 14 -7 2 -13 11 -13 19 0 8 -5 14 -11 14 -6 0
-9 -6 -6 -14z"/>
<path d="M5210 2443 c-121 -41 -133 -83 -28 -96 48 -7 62 1 64 33 1 8 2 23 3
33 0 9 8 17 16 17 8 0 15 5 15 10 0 10 -43 12 -70 3z"/>
<path d="M5474 2415 c-4 -10 -20 -15 -44 -15 -22 0 -42 -4 -45 -10 -3 -5 -16
-10 -29 -10 -21 0 -46 -17 -46 -31 0 -10 81 -28 160 -37 84 -9 94 -32 23 -57
-26 -9 -57 -21 -68 -26 -33 -15 -130 -16 -127 -1 1 6 -2 12 -7 12 -5 0 -17 8
-26 17 -14 14 -40 17 -144 18 -133 1 -179 -8 -160 -32 6 -7 20 -13 30 -13 23
0 24 -13 3 -31 -13 -11 -12 -14 13 -24 l28 -12 -36 -8 c-35 -6 -131 7 -156 23
-13 8 -6 62 8 62 5 0 9 11 9 24 0 14 5 28 10 31 6 3 10 15 10 25 0 28 -45 37
-69 15 -17 -14 -26 -15 -80 -4 -33 6 -71 9 -85 5 -25 -6 -64 -51 -54 -62 11
-10 108 -17 108 -7 0 14 45 22 61 12 10 -6 3 -17 -23 -43 -48 -46 -131 -63
-177 -35 -29 18 -51 11 -51 -16 0 -7 -9 -20 -20 -30 -31 -28 -25 -32 39 -21
54 9 63 7 108 -17 43 -22 56 -24 89 -17 73 17 120 12 154 -16 28 -24 36 -26
83 -19 91 14 126 10 157 -20 l29 -28 80 13 80 13 41 -28 c34 -24 45 -27 68
-19 19 7 26 16 25 32 -2 15 6 26 27 37 17 9 30 19 30 23 0 4 21 14 48 21 26 7
58 16 72 20 14 5 51 2 84 -6 72 -17 187 -4 253 28 l43 21 0 109 c0 99 -2 108
-17 102 -10 -3 -28 -15 -40 -26 -13 -11 -23 -15 -23 -9 0 7 -16 18 -35 26 -19
8 -35 21 -35 28 0 8 -5 6 -11 -4 -13 -24 -26 -23 -34 2 -8 25 -35 26 -35 1 0
-14 -5 -18 -20 -14 -11 3 -20 0 -20 -6 0 -6 7 -11 16 -11 26 0 5 -19 -35 -31
-53 -16 -111 -4 -111 21 0 17 -7 20 -40 20 -22 0 -40 -4 -40 -10 0 -5 -11 -10
-24 -10 -13 0 -26 -5 -28 -11 -2 -6 -13 -9 -23 -6 -19 5 -19 5 3 12 12 4 22
15 22 26 0 14 7 19 25 19 14 0 25 4 25 9 0 5 8 12 18 14 9 3 0 5 -21 6 -25 1
-40 -4 -43 -14z m99 -82 c-7 -2 -19 -2 -25 0 -7 3 -2 5 12 5 14 0 19 -2 13 -5z
m327 -8 c-7 -8 -23 -15 -36 -15 -15 0 -24 6 -24 15 0 11 11 15 36 15 31 0 35
-2 24 -15z m-280 -5 c0 -5 -4 -10 -10 -10 -5 0 -10 5 -10 10 0 6 5 10 10 10 6
0 10 -4 10 -10z m215 -20 c3 -6 0 -13 -9 -16 -15 -6 -36 -54 -36 -85 0 -11 10
-19 28 -23 15 -2 -11 -2 -58 1 -47 3 -106 5 -132 4 -46 -2 -48 -1 -48 25 0 17
4 24 13 21 7 -3 19 3 25 13 9 16 8 19 -8 22 -15 2 -17 7 -10 18 10 16 64 18
158 6 43 -6 52 -4 52 9 0 17 16 20 25 5z m-637 -161 c-7 -5 -30 -9 -51 -9 -52
0 -44 20 14 34 36 9 45 8 47 -3 2 -7 -2 -17 -10 -22z m682 31 c0 -5 -7 -10
-15 -10 -8 0 -15 5 -15 10 0 6 7 10 15 10 8 0 15 -4 15 -10z m-364 -19 c-3 -5
-15 -11 -26 -14 -17 -4 -19 -3 -9 9 12 15 44 20 35 5z"/>
<path d="M5150 2320 c19 -13 30 -13 30 0 0 6 -10 10 -22 10 -19 0 -20 -2 -8
-10z"/>
<path d="M4557 2283 c-4 -3 -7 -11 -7 -17 0 -6 5 -5 12 2 6 6 9 14 7 17 -3 3
-9 2 -12 -2z"/>
<path d="M1065 2098 c-4 -13 -7 -27 -6 -31 1 -4 2 -19 3 -32 1 -13 6 -21 11
-18 4 2 5 13 2 24 -4 10 -3 24 2 31 11 19 14 48 4 48 -5 0 -12 -10 -16 -22z"/>
<path d="M1030 2030 c0 -5 5 -10 10 -10 6 0 10 5 10 10 0 6 -4 10 -10 10 -5 0
-10 -4 -10 -10z"/>
<path d="M5968 1909 c-24 -13 -23 -56 1 -69 30 -15 31 -14 31 35 0 47 -4 51
-32 34z"/>
<path d="M5528 1834 c-52 -27 -62 -50 -24 -60 41 -10 96 40 79 71 -6 10 -18 8
-55 -11z"/>
<path d="M3818 1753 c7 -3 16 -2 19 1 4 3 -2 6 -13 5 -11 0 -14 -3 -6 -6z"/>
<path d="M5553 1703 c-7 -2 -23 -22 -35 -44 -25 -45 -52 -50 -132 -23 -37 13
-72 15 -149 12 -109 -6 -188 -29 -260 -77 -35 -23 -38 -28 -33 -59 3 -19 17
-46 32 -60 l26 -27 -27 -11 c-20 -8 -23 -13 -13 -21 43 -32 183 -79 373 -123
77 -17 219 -52 315 -77 254 -64 330 -83 341 -83 5 0 9 71 9 170 0 132 -3 171
-14 177 -7 4 -41 34 -76 65 -141 129 -237 188 -305 187 -22 0 -46 -3 -52 -6z"/>
<path d="M3613 1665 c-32 -14 -43 -38 -23 -50 5 -3 7 0 4 9 -4 10 5 20 25 31
17 8 31 18 31 20 0 6 0 7 -37 -10z"/>
<path d="M5114 766 c-67 -25 -96 -43 -199 -127 -126 -102 -225 -217 -225 -262
0 -7 14 -32 30 -54 37 -51 73 -64 183 -68 73 -3 172 -14 275 -31 33 -5 34 -6
26 -42 -10 -51 -7 -90 12 -140 12 -33 21 -42 39 -42 23 0 23 0 8 39 -30 76 6
151 72 151 19 0 37 -5 40 -10 3 -6 14 -10 22 -10 14 0 12 4 -6 21 -28 27 -19
39 11 13 20 -18 21 -18 15 -1 -5 14 1 21 28 33 19 8 46 12 59 8 17 -4 27 0 34
12 9 16 5 21 -21 32 -22 9 -33 10 -35 2 -8 -22 -36 -41 -54 -37 -12 3 -16 1
-12 -6 5 -9 4 -9 -6 0 -14 13 -5 29 52 91 19 21 33 43 30 50 -7 22 36 59 84
72 58 17 149 8 202 -19 57 -29 112 -79 112 -102 0 -10 6 -19 13 -20 6 0 -4 -5
-23 -11 -47 -13 -65 -28 -48 -39 10 -6 8 -12 -9 -24 -24 -17 -21 -45 6 -45 9
0 5 -6 -13 -15 -36 -19 -50 -19 -66 0 -24 29 -93 8 -82 -25 6 -17 -2 -12 -66
42 -30 26 -72 38 -72 21 0 -4 17 -25 38 -46 20 -22 30 -37 22 -35 -8 3 -27 -1
-41 -10 -24 -14 -29 -13 -57 8 -43 32 -53 17 -15 -23 18 -17 39 -51 48 -74
l17 -43 229 0 229 0 -1 168 0 167 -67 58 c-80 69 -129 98 -197 116 -117 31
-163 47 -218 78 -33 18 -62 33 -66 33 -4 0 -31 -20 -59 -45 -29 -24 -58 -42
-65 -39 -7 2 -28 -7 -47 -21 -19 -14 -38 -25 -44 -25 -5 0 -1 6 9 14 16 11 17
16 6 29 -7 9 -26 19 -43 22 -24 6 -35 2 -57 -19 -30 -29 -51 -34 -51 -11 0 8
-4 15 -10 15 -17 0 -11 -15 18 -43 15 -15 35 -27 44 -27 31 0 29 -19 -5 -44
-55 -42 -73 -45 -173 -23 -123 26 -174 11 -174 -50 0 -21 -3 -24 -22 -19 -13
3 -26 6 -30 6 -19 0 -6 43 20 66 15 14 21 23 15 19 -7 -3 -13 -2 -13 3 0 15
26 33 35 24 5 -4 5 -1 1 5 -12 22 93 131 182 189 167 109 206 120 299 89 97
-32 121 -91 67 -162 l-29 -38 52 44 c70 58 73 72 28 127 -71 86 -167 106 -291
60z m-194 -140 c0 -2 -8 -10 -17 -17 -16 -13 -17 -12 -4 4 13 16 21 21 21 13z
m-200 -261 c14 -19 14 -19 -2 -6 -10 7 -18 18 -18 24 0 6 1 8 3 6 1 -2 9 -13
17 -24z m1120 -315 c-44 -34 -67 -17 -38 30 10 15 9 22 -5 38 -34 38 -16 32
26 -7 l42 -41 -25 -20z m3 93 c-7 -2 -19 -2 -25 0 -7 3 -2 5 12 5 14 0 19 -2
13 -5z m44 -9 c-3 -3 -12 -4 -19 -1 -8 3 -5 6 6 6 11 1 17 -2 13 -5z m-232
-24 c3 -5 -3 -10 -14 -10 -11 0 -23 5 -26 10 -3 6 3 10 14 10 11 0 23 -4 26
-10z"/>
<path d="M0 679 c0 -25 5 -28 53 -39 28 -6 75 -14 102 -16 28 -3 59 -9 70 -14
19 -8 135 -31 180 -35 11 -1 55 -10 98 -20 43 -9 80 -15 82 -13 4 4 -94 32
-407 117 l-178 48 0 -28z"/>
<path d="M5104 661 c-21 -15 -48 -38 -58 -50 -19 -21 -19 -21 11 -21 18 0 33
-6 37 -15 9 -24 30 -18 55 15 22 30 21 56 -2 44 -8 -5 -8 -3 1 7 14 15 16 49
4 49 -5 0 -27 -13 -48 -29z"/>
<path d="M1250 610 c210 -30 285 -39 560 -65 291 -28 332 -35 337 -51 2 -7 -4
-19 -13 -28 -13 -14 -29 -16 -83 -11 -36 3 -122 10 -191 16 -116 8 -190 16
-363 37 -69 8 -98 -1 -55 -17 13 -4 84 -14 158 -21 74 -6 225 -22 335 -35 247
-29 355 -36 355 -24 0 5 9 18 20 29 l20 20 -30 0 c-16 0 -33 -7 -38 -16 -6
-11 -21 -14 -53 -12 -40 3 -44 5 -47 32 -4 35 10 45 57 40 20 -2 176 -20 346
-39 483 -53 441 -51 448 -24 7 27 0 39 -12 21 -6 -10 -10 -10 -19 1 -6 7 -32
14 -59 14 -43 1 -45 0 -18 -7 20 -6 2 -7 -50 -3 -193 13 -233 20 -253 39 -7 8
-23 14 -35 13 -21 0 -21 -1 -2 -10 16 -7 14 -8 -10 -4 -16 4 -73 10 -125 15
-52 5 -124 14 -159 20 -47 8 -67 8 -77 -1 -11 -9 -16 -5 -26 17 -11 28 -12 28
-15 7 -5 -26 -11 -27 -112 -9 -40 8 -82 11 -92 9 -11 -3 -40 0 -67 7 -26 7
-94 14 -152 15 -58 2 -199 12 -315 24 -251 25 -339 26 -165 1z"/>
<path d="M2793 483 c9 -2 25 -2 35 0 9 3 1 5 -18 5 -19 0 -27 -2 -17 -5z"/>
<path d="M4826 473 c-6 -14 -5 -15 5 -6 7 7 10 15 7 18 -3 3 -9 -2 -12 -12z"/>
<path d="M5888 483 c7 -5 10 -17 7 -25 -5 -12 3 -17 32 -22 21 -4 46 -9 56
-12 12 -4 17 0 17 14 0 15 -11 22 -44 31 -24 6 -52 13 -62 17 -13 4 -15 3 -6
-3z"/>
<path d="M2420 441 c0 -17 9 -18 180 -35 91 -9 176 -18 190 -20 25 -4 60 8 50
17 -3 3 -81 12 -175 21 -93 9 -187 19 -207 22 -23 4 -38 2 -38 -5z"/>
<path d="M2418 405 c-3 -4 -1 -17 6 -31 9 -20 16 -23 36 -19 36 9 45 21 30 40
-12 14 -61 21 -72 10z"/>
<path d="M2898 393 c7 -3 16 -2 19 1 4 3 -2 6 -13 5 -11 0 -14 -3 -6 -6z"/>
<path d="M5660 242 c0 -6 9 -12 20 -15 11 -3 20 -3 20 -1 0 2 -9 8 -20 14 -11
6 -20 7 -20 2z"/>
</g>
</svg>
